<?xml version="1.0" encoding="iso-8859-1"?>
<!-- Generator: Adobe Illustrator 21.1.0, SVG Export Plug-In . SVG Version: 6.00 Build 0)  -->
<svg version="1.1" id="Layer_1" xmlns="http://www.w3.org/2000/svg" xmlns:xlink="http://www.w3.org/1999/xlink" x="0px" y="0px"
	 viewBox="0 0 100.353 100.352" style="enable-background:new 0 0 100.353 100.352;" xml:space="preserve">
<g>
	<path d="M87.742,21.408H13.69c-2.879,0-5.221,2.095-5.221,4.67V71.53c0,2.575,2.342,4.671,5.221,4.671h74.052
		c2.879,0,5.221-2.096,5.221-4.671V26.078C92.963,23.503,90.621,21.408,87.742,21.408z M89.963,71.53
		c0,0.905-1.017,1.671-2.221,1.671H13.69c-1.204,0-2.221-0.766-2.221-1.671V26.078c0-0.905,1.017-1.67,2.221-1.67h74.052
		c1.204,0,2.221,0.765,2.221,1.67V71.53z"/>
	<path d="M50.715,28.782c-11.04,0-20.022,8.982-20.022,20.022s8.982,20.022,20.022,20.022s20.022-8.982,20.022-20.022
		S61.755,28.782,50.715,28.782z M50.715,65.826c-9.386,0-17.022-7.637-17.022-17.022s7.636-17.022,17.022-17.022
		s17.022,7.636,17.022,17.022S60.101,65.826,50.715,65.826z"/>
	<path d="M59.572,47.535l-11.762-7.409c-0.461-0.292-1.046-0.309-1.524-0.044c-0.479,0.264-0.775,0.767-0.775,1.313v14.818
		c0,0.546,0.297,1.049,0.775,1.313c0.226,0.125,0.475,0.187,0.725,0.187c0.278,0,0.556-0.077,0.799-0.23l11.762-7.41
		c0.436-0.274,0.7-0.754,0.7-1.269S60.008,47.809,59.572,47.535z M48.511,53.495v-9.383l7.447,4.691L48.511,53.495z"/>
</g>
</svg>
