<?xml version="1.0" encoding="iso-8859-1"?>
<!-- Generator: Adobe Illustrator 21.1.0, SVG Export Plug-In . SVG Version: 6.00 Build 0)  -->
<svg version="1.1" id="Layer_1" xmlns="http://www.w3.org/2000/svg" xmlns:xlink="http://www.w3.org/1999/xlink" x="0px" y="0px"
	 viewBox="0 0 100.355 100.352" style="enable-background:new 0 0 100.355 100.352;" xml:space="preserve">
<path d="M81.439,31.872c-2.087,0-4,0.752-5.487,1.997V22.663c0-6.847-5.57-12.417-12.417-12.417H36.59
	c-6.847,0-12.417,5.57-12.417,12.417v11.191c-1.504-1.309-3.463-2.109-5.609-2.109c-4.722,0-8.563,3.841-8.563,8.563v35.725
	c0,0.828,0.671,1.5,1.5,1.5H24.05v12.72c0,0.828,0.671,1.5,1.5,1.5s1.5-0.672,1.5-1.5V77.597l45.903,0.061v12.595
	c0,0.828,0.672,1.5,1.5,1.5s1.5-0.672,1.5-1.5V77.659h12.548c0.828,0,1.5-0.672,1.5-1.5V40.435
	C90.001,35.713,86.16,31.872,81.439,31.872z M27.173,22.663c0-5.192,4.225-9.417,9.417-9.417h26.945
	c5.192,0,9.417,4.225,9.417,9.417l0.001,16.686c-0.045,0.357-0.077,0.717-0.077,1.086c0,0.158,0.031,0.308,0.077,0.451l0,12.379
	h-45.78V22.663z M13.001,40.308c0-3.067,2.496-5.563,5.563-5.563c3.067,0,5.562,2.496,5.562,5.563c0,0.123,0.019,0.241,0.047,0.355
	V54.41c-0.028,0.114-0.047,0.232-0.047,0.355v19.768H13.001V40.308z M27.126,56.265h45.75v18.393l-45.75-0.061V56.265z
	 M87.001,74.659H75.876V55.215c0.045-0.143,0.076-0.292,0.076-0.45V39.557c0.423-2.651,2.719-4.685,5.487-4.685
	c3.066,0,5.562,2.496,5.562,5.563V74.659z"/>
</svg>
