<?xml version="1.0" encoding="iso-8859-1"?>
<!-- Generator: Adobe Illustrator 21.1.0, SVG Export Plug-In . SVG Version: 6.00 Build 0)  -->
<svg version="1.1" id="Layer_1" xmlns="http://www.w3.org/2000/svg" xmlns:xlink="http://www.w3.org/1999/xlink" x="0px" y="0px"
	 viewBox="0 0 100.353 100.352" style="enable-background:new 0 0 100.353 100.352;" xml:space="preserve">
<path d="M50.001,6.578C26.058,6.578,6.58,26.057,6.58,49.999c0,23.943,19.479,43.421,43.421,43.421
	c23.942,0,43.421-19.479,43.421-43.421C93.421,26.057,73.943,6.578,50.001,6.578z M48.501,90.383
	C27.404,89.607,10.392,72.595,9.617,51.499h11.949c0.757,14.51,12.425,26.178,26.935,26.935V90.383z M48.501,75.426
	c-12.854-0.75-23.176-11.073-23.927-23.927h12.587c0.689,5.934,5.406,10.65,11.34,11.34V75.426z M48.501,59.807
	c-4.276-0.652-7.656-4.032-8.308-8.308h8.308V59.807z M40.192,48.499c0.652-4.276,4.032-7.656,8.308-8.308v8.308H40.192z
	 M48.501,37.159c-5.934,0.69-10.65,5.406-11.34,11.34H24.574c0.751-12.854,11.073-23.176,23.927-23.926V37.159z M48.501,21.565
	c-14.51,0.757-26.178,12.425-26.935,26.934H9.617c0.775-21.096,17.787-38.108,38.884-38.883V21.565z M51.5,9.616
	c21.097,0.775,38.109,17.787,38.883,38.883H78.434C77.677,33.99,66.009,22.322,51.5,21.565V9.616z M59.809,51.499
	c-0.652,4.276-4.032,7.656-8.308,8.308v-8.308H59.809z M51.501,48.499v-8.308c4.276,0.652,7.656,4.032,8.308,8.308H51.501z
	 M62.841,51.499h12.587c-0.75,12.854-11.073,23.176-23.926,23.927l-0.001-12.587C57.435,62.149,62.151,57.433,62.841,51.499z
	 M51.5,24.572c12.854,0.751,23.176,11.073,23.926,23.926H62.84v0.001c-0.69-5.934-5.406-10.65-11.34-11.34V24.572z M51.501,90.382
	V78.433c14.509-0.757,26.177-12.425,26.934-26.935h11.949C89.609,72.595,72.597,89.607,51.501,90.382z"/>
</svg>
